<svg width="954" height="631" viewBox="0 0 954 631" fill="none" xmlns="http://www.w3.org/2000/svg">
<path d="M715.021 116.367C743.722 167.454 739.922 227.339 728.322 282.826C715.721 342.711 691.02 399.597 661.219 452.784C634.018 501.372 601.717 548.26 558.015 582.851C507.013 623.241 445.91 639.837 382.208 626.441C313.705 612.044 252.402 576.053 188.8 548.46C181.899 545.461 174.999 542.561 167.999 539.862C107.096 516.168 12.8926 497.672 1.0921 420.791C-8.6083 357.907 47.894 310.619 107.796 323.715C164.899 336.212 274.503 402.696 266.603 330.014C260.003 269.429 288.304 170.253 370.407 186.449C401.108 192.548 416.909 216.442 446.61 224.44C490.512 236.237 510.113 197.847 523.513 163.255C536.914 128.464 561.915 90.4732 594.916 71.4779C626.918 53.0824 671.419 66.879 696.121 91.2729C703.621 98.6711 709.921 107.169 715.021 116.367Z" fill="url(#paint0_linear_855_270)"/>
<path d="M382.168 35.6292C337.226 97.2798 380.67 157.129 399.047 217.579C402.642 229.288 406.637 243.1 402.542 255.109C397.449 269.922 383.167 281.731 369.384 270.222C357.2 260.013 352.107 237.895 348.112 223.283C340.322 194.56 339.622 153.326 309.96 137.313C282.695 131.608 279 165.236 279 187.254V187.954C279 192.758 279.2 197.062 279.3 200.164C280.898 238.596 287.989 278.429 311.658 309.854C326.539 329.771 347.213 343.282 365.19 359.996C376.076 370.104 385.564 381.613 393.354 394.224C397.249 400.529 400.644 407.134 403.741 413.84C406.437 419.845 409.034 426.55 414.826 430.453C434.601 443.464 456.173 417.443 467.259 404.532C478.545 391.421 488.332 380.212 498.02 365.9C562.138 271.523 537.07 241.598 488.432 250.606C489.131 250.506 491.329 244.701 491.828 243.8C493.126 241.498 494.524 239.196 496.023 236.995C499.019 232.491 502.315 228.187 505.81 223.884C512.801 215.277 520.292 207.07 526.983 198.263C532.576 190.857 537.769 182.85 541.165 174.143C544.361 165.936 545.559 155.828 544.76 147.021C544.261 141.516 542.463 135.711 538.668 131.508C534.773 127.204 528.781 125.103 523.188 124.302C511.802 122.801 500.017 125.403 489.032 128.505C479.644 131.108 472.752 133.81 472.652 132.909C470.355 120.499 475.649 106.788 478.545 94.7778C484.737 69.3569 506.21 14.7121 468.757 2.60211C463.364 0.900715 457.572 0 451.679 0C425.413 0.100082 396.45 16.0131 382.168 35.6292Z" fill="url(#paint1_linear_855_270)"/>
<mask id="mask0_855_270" style="mask-type:luminance" maskUnits="userSpaceOnUse" x="279" y="0" width="266" height="434">
<path d="M382.168 35.6292C337.226 97.2798 380.67 157.129 399.047 217.579C402.642 229.288 406.637 243.1 402.542 255.109C397.449 269.922 383.167 281.731 369.384 270.222C357.2 260.013 352.107 237.895 348.112 223.283C340.322 194.56 339.622 153.326 309.96 137.313C282.695 131.608 279 165.236 279 187.254V187.954C279 192.758 279.2 197.062 279.3 200.164C280.898 238.596 287.989 278.429 311.658 309.854C326.539 329.771 347.213 343.282 365.19 359.996C376.076 370.104 385.564 381.613 393.354 394.224C397.249 400.529 400.644 407.134 403.741 413.84C406.437 419.845 409.034 426.55 414.826 430.453C434.601 443.464 456.173 417.443 467.259 404.532C478.545 391.421 488.332 380.212 498.02 365.9C562.138 271.523 537.07 241.598 488.432 250.606C489.131 250.506 491.329 244.701 491.828 243.8C493.126 241.498 494.524 239.196 496.023 236.995C499.019 232.491 502.315 228.187 505.81 223.884C512.801 215.277 520.292 207.07 526.983 198.263C532.576 190.857 537.769 182.85 541.165 174.143C544.361 165.936 545.559 155.828 544.76 147.021C544.261 141.516 542.463 135.711 538.668 131.508C534.773 127.204 528.781 125.103 523.188 124.302C511.802 122.801 500.017 125.403 489.032 128.505C479.644 131.108 472.752 133.81 472.652 132.909C470.355 120.499 475.649 106.788 478.545 94.7778C484.737 69.3569 506.21 14.7121 468.757 2.60211C463.364 0.900715 457.572 0 451.679 0C425.413 0.100082 396.45 16.0131 382.168 35.6292Z" fill="white"/>
</mask>
<g mask="url(#mask0_855_270)">
<path d="M562 0H279V435.999H562V0Z" fill="url(#paint2_linear_855_270)"/>
<mask id="mask1_855_270" style="mask-type:luminance" maskUnits="userSpaceOnUse" x="279" y="0" width="283" height="436">
<path d="M562 0H279V435.999H562V0Z" fill="white"/>
</mask>
<g mask="url(#mask1_855_270)">
<path d="M562 0H279V435.999H562V0Z" fill="url(#paint3_linear_855_270)"/>
</g>
</g>
<path d="M631.731 67.426C622.836 108.256 663.211 127.97 662.312 169.301C661.312 214.534 607.546 211.432 582.462 270.675C552.78 340.927 616.241 433.995 691.793 428.791C760.251 424.088 728.171 311.505 773.542 307.702C795.329 305.901 817.015 350.233 830.107 362.843C856.391 387.961 886.372 391.364 915.454 367.646C945.935 342.928 967.322 293.592 944.336 257.365C924.748 226.443 884.274 220.438 851.794 212.232C844.398 210.331 783.636 203.226 804.423 178.507C812.218 169.201 824.811 151.888 816.915 138.778C806.022 120.765 776.141 133.675 761.95 119.364C748.558 105.954 754.754 80.4355 744.76 64.0235C733.068 44.7093 705.485 32 680.401 32C657.815 32.2001 637.227 42.5077 631.731 67.426Z" fill="url(#paint4_linear_855_270)"/>
<path d="M545 48.1162C560.192 27.7415 583.18 20.2508 606.967 25.744C663.437 38.9276 655.241 159.877 733 111.737L545 48.1162Z" stroke="#D8BCF9" stroke-width="28.3465" stroke-miterlimit="10"/>
<defs>
<linearGradient id="paint0_linear_855_270" x1="-62.6046" y1="346.98" x2="771.803" y2="346.98" gradientUnits="userSpaceOnUse">
<stop stopColor="#FFCB8F"/>
<stop offset="1" stopColor="#FFEF76"/>
</linearGradient>
<linearGradient id="paint1_linear_855_270" x1="294.895" y1="217.038" x2="562.494" y2="217.038" gradientUnits="userSpaceOnUse">
<stop stopColor="#FFC662"/>
<stop offset="1" stopColor="#FF9E99"/>
</linearGradient>
<linearGradient id="paint2_linear_855_270" x1="295.999" y1="218.042" x2="580.843" y2="218.042" gradientUnits="userSpaceOnUse">
<stop stopColor="#FFC662"/>
<stop offset="1" stopColor="#FF9E99"/>
</linearGradient>
<linearGradient id="paint3_linear_855_270" x1="295.999" y1="218.042" x2="580.843" y2="218.042" gradientUnits="userSpaceOnUse">
<stop stopColor="#FFC662"/>
<stop offset="1" stopColor="#FF9E99"/>
</linearGradient>
<linearGradient id="paint4_linear_855_270" x1="808.424" y1="132.568" x2="724.687" y2="414.877" gradientUnits="userSpaceOnUse">
<stop stopColor="#268562"/>
<stop offset="0.17" stopColor="#24805D"/>
<stop offset="0.37" stopColor="#1F7250"/>
<stop offset="0.59" stopColor="#175B3C"/>
<stop offset="0.81" stopColor="#0B3B1E"/>
<stop offset="1" stopColor="#001900"/>
</linearGradient>
</defs>
</svg>
