<svg width="1937" height="930" viewBox="0 0 1937 930" fill="none" xmlns="http://www.w3.org/2000/svg">
<path d="M1698.02 415.367C1726.72 466.454 1722.92 526.339 1711.32 581.826C1698.72 641.711 1674.02 698.597 1644.22 751.784C1617.02 800.372 1584.72 847.26 1541.01 881.851C1490.01 922.241 1428.91 938.837 1365.21 925.441C1296.7 911.044 1235.4 875.053 1171.8 847.46C1164.9 844.461 1158 841.561 1151 838.862C1090.1 815.168 995.893 796.672 984.092 719.791C974.392 656.907 1030.89 609.619 1090.8 622.715C1147.9 635.212 1257.5 701.696 1249.6 629.014C1243 568.429 1271.3 469.253 1353.41 485.449C1384.11 491.548 1399.91 515.442 1429.61 523.44C1473.51 535.237 1493.11 496.847 1506.51 462.255C1519.91 427.464 1544.92 389.473 1577.92 370.478C1609.92 352.082 1654.42 365.879 1679.12 390.273C1686.62 397.671 1692.92 406.169 1698.02 415.367Z" fill="url(#paint0_linear_854_233)"/>
<path d="M1614.73 366.426C1605.84 407.256 1646.21 426.97 1645.31 468.301C1644.31 513.534 1590.55 510.432 1565.46 569.675C1535.78 639.927 1599.24 732.995 1674.79 727.791C1743.25 723.088 1711.17 610.505 1756.54 606.702C1778.33 604.901 1800.02 649.233 1813.11 661.843C1839.39 686.961 1869.37 690.364 1898.45 666.646C1928.94 641.928 1950.32 592.592 1927.34 556.365C1907.75 525.443 1867.27 519.438 1834.79 511.232C1827.4 509.331 1766.64 502.226 1787.42 477.507C1795.22 468.201 1807.81 450.888 1799.92 437.778C1789.02 419.765 1759.14 432.675 1744.95 418.364C1731.56 404.954 1737.75 379.436 1727.76 363.023C1716.07 343.709 1688.48 331 1663.4 331C1640.81 331.2 1620.23 341.508 1614.73 366.426Z" fill="url(#paint1_linear_854_233)"/>
<path d="M239.58 4.13385C290.203 15.7383 319.917 50.3517 324.019 104.173C326.62 138.786 309.712 178.901 336.325 206.312C358.835 229.521 388.149 223.219 417.762 217.016C442.474 211.814 467.385 206.612 488.695 218.517C555.526 255.831 497.399 309.152 517.709 369.575C530.415 407.29 556.227 422.496 595.245 415.293C641.666 406.69 686.487 380.98 734.81 388.082C783.232 395.185 829.654 420.995 840.258 473.415C846.661 504.827 835.256 542.842 808.544 561.849C779.13 582.858 746.115 580.257 712.099 576.955C673.581 573.154 643.767 604.466 619.656 629.876C570.133 682.096 490.296 700.103 420.264 701.804C282.8 705.205 115.422 664.989 43.3886 535.739C33.9843 518.933 26.5809 501.126 21.0783 482.719C-3.83326 400.187 -3.53312 299.448 5.97129 214.415C13.3747 148.79 37.9862 80.2633 91.511 38.247C130.529 7.73524 182.653 -5.97006 231.576 2.43319C234.177 2.93339 236.878 3.53362 239.58 4.13385Z" fill="url(#paint2_linear_854_233)"/>
<path d="M116.318 359.401C111.916 411.5 165.333 429.3 170.835 480.799C176.937 537.099 109.616 541.998 88.2086 619.597C62.8004 711.596 156.931 816.595 249.761 797.795C333.988 780.795 275.769 646.397 331.587 634.297C358.396 628.497 392.507 679.896 410.913 693.396C447.724 720.296 485.437 719.496 517.747 685.396C551.558 649.697 570.064 585.098 535.553 543.898C506.143 508.799 454.927 507.999 413.213 503.099C403.81 501.999 327.086 502.999 348.893 469.1C357.095 456.3 369.799 432.7 357.996 417.8C349.193 406.8 335.188 407.6 320.884 408.5C308.38 409.2 295.876 409.9 286.473 402.8C267.666 388.401 271.168 355.701 256.163 337.001C240.858 318.002 211.748 307.002 183.939 307.002C150.729 306.802 119.419 322.602 116.318 359.401Z" fill="url(#paint3_linear_854_233)"/>
<path d="M208.624 84.2424C206.327 130.39 191.551 169.446 163.297 206.604C126.656 254.65 186.659 306.591 236.079 288.212C289.992 268.234 338.214 234.772 393.924 219.389C409.598 215.094 425.872 211.199 441.846 207.803C451.531 205.805 461.115 203.208 468.503 196.216C475.791 189.423 480.683 180.334 483.08 170.745C488.171 150.867 483.08 128.293 468.503 113.509C459.118 104.02 446.539 98.6261 433.36 97.0279C408.9 94.0313 382.143 93.5319 358.281 87.3389C336.616 81.6454 324.436 67.4614 309.86 51.4795C298.279 38.7938 282.504 33.0004 266.829 33.0004C238.276 32.9005 210.121 52.2786 208.624 84.2424Z" fill="url(#paint4_linear_854_233)"/>
<path d="M598 675C603.605 650.741 622.024 633.47 646.748 626.682C705.505 610.709 749.448 715.731 802 638.262" stroke="#D8BCF9" stroke-width="28.3465" stroke-miterlimit="10"/>
<path d="M396 322.5C396 353.755 421.345 379 452.5 379C483.655 379 509 353.655 509 322.5C509 291.345 483.655 266 452.5 266C421.345 266 396 291.345 396 322.5Z" fill="url(#paint5_linear_854_233)"/>
<path d="M1365.17 334.629C1320.23 396.28 1363.67 456.129 1382.05 516.579C1385.64 528.288 1389.64 542.1 1385.54 554.109C1380.45 568.922 1366.17 580.731 1352.38 569.222C1340.2 559.013 1335.11 536.895 1331.11 522.283C1323.32 493.56 1322.62 452.326 1292.96 436.313C1265.7 430.608 1262 464.236 1262 486.254V486.954C1262 491.758 1262.2 496.062 1262.3 499.164C1263.9 537.596 1270.99 577.429 1294.66 608.854C1309.54 628.771 1330.21 642.282 1348.19 658.996C1359.08 669.104 1368.56 680.613 1376.35 693.224C1380.25 699.529 1383.64 706.134 1386.74 712.84C1389.44 718.845 1392.03 725.55 1397.83 729.453C1417.6 742.464 1439.17 716.443 1450.26 703.532C1461.54 690.421 1471.33 679.212 1481.02 664.9C1545.14 570.523 1520.07 540.598 1471.43 549.606C1472.13 549.506 1474.33 543.701 1474.83 542.8C1476.13 540.498 1477.52 538.196 1479.02 535.995C1482.02 531.491 1485.31 527.187 1488.81 522.884C1495.8 514.277 1503.29 506.07 1509.98 497.263C1515.58 489.857 1520.77 481.85 1524.16 473.143C1527.36 464.936 1528.56 454.828 1527.76 446.021C1527.26 440.516 1525.46 434.711 1521.67 430.508C1517.77 426.204 1511.78 424.103 1506.19 423.302C1494.8 421.801 1483.02 424.403 1472.03 427.505C1462.64 430.108 1455.75 432.81 1455.65 431.909C1453.36 419.499 1458.65 405.788 1461.54 393.778C1467.74 368.357 1489.21 313.712 1451.76 301.602C1446.36 299.901 1440.57 299 1434.68 299C1408.41 299.1 1379.45 315.013 1365.17 334.629Z" fill="url(#paint6_linear_854_233)"/>
<mask id="mask0_854_233" style="mask-type:luminance" maskUnits="userSpaceOnUse" x="1262" y="299" width="266" height="434">
<path d="M1365.17 334.629C1320.23 396.28 1363.67 456.129 1382.05 516.579C1385.64 528.288 1389.64 542.1 1385.54 554.109C1380.45 568.922 1366.17 580.731 1352.38 569.222C1340.2 559.013 1335.11 536.895 1331.11 522.283C1323.32 493.56 1322.62 452.326 1292.96 436.313C1265.7 430.608 1262 464.236 1262 486.254V486.954C1262 491.758 1262.2 496.062 1262.3 499.164C1263.9 537.596 1270.99 577.429 1294.66 608.854C1309.54 628.771 1330.21 642.282 1348.19 658.996C1359.08 669.104 1368.56 680.613 1376.35 693.224C1380.25 699.529 1383.64 706.134 1386.74 712.84C1389.44 718.845 1392.03 725.55 1397.83 729.453C1417.6 742.464 1439.17 716.443 1450.26 703.532C1461.54 690.421 1471.33 679.212 1481.02 664.9C1545.14 570.523 1520.07 540.598 1471.43 549.606C1472.13 549.506 1474.33 543.701 1474.83 542.8C1476.13 540.498 1477.52 538.196 1479.02 535.995C1482.02 531.491 1485.31 527.187 1488.81 522.884C1495.8 514.277 1503.29 506.07 1509.98 497.263C1515.58 489.857 1520.77 481.85 1524.16 473.143C1527.36 464.936 1528.56 454.828 1527.76 446.021C1527.26 440.516 1525.46 434.711 1521.67 430.508C1517.77 426.204 1511.78 424.103 1506.19 423.302C1494.8 421.801 1483.02 424.403 1472.03 427.505C1462.64 430.108 1455.75 432.81 1455.65 431.909C1453.36 419.499 1458.65 405.788 1461.54 393.778C1467.74 368.357 1489.21 313.712 1451.76 301.602C1446.36 299.901 1440.57 299 1434.68 299C1408.41 299.1 1379.45 315.013 1365.17 334.629Z" fill="white"/>
</mask>
<g mask="url(#mask0_854_233)">
<path d="M1545 299H1262V734.999H1545V299Z" fill="url(#paint7_linear_854_233)"/>
<mask id="mask1_854_233" style="mask-type:luminance" maskUnits="userSpaceOnUse" x="1262" y="299" width="283" height="436">
<path d="M1545 299H1262V734.999H1545V299Z" fill="white"/>
</mask>
<g mask="url(#mask1_854_233)">
<path d="M1545 299H1262V734.999H1545V299Z" fill="url(#paint8_linear_854_233)"/>
</g>
</g>
<path d="M450.79 425.925C449.289 420.635 446.989 415.145 443.788 409.455C416.582 361.441 353.667 377.212 314.058 398.874C290.553 411.651 266.948 429.319 252.545 452.378C242.942 467.751 242.942 467.751 252.545 452.378C240.542 471.644 239.041 493.704 246.743 514.966C266.248 568.371 319.76 555.793 360.369 535.829C400.078 516.264 465.893 479.829 450.79 425.925Z" fill="#D094D2"/>
<path d="M1528 347.116C1543.19 326.741 1566.18 319.251 1589.97 324.744C1646.44 337.928 1638.24 458.877 1716 410.737L1528 347.116Z" stroke="#D8BCF9" stroke-width="28.3465" stroke-miterlimit="10"/>
<defs>
<linearGradient id="paint0_linear_854_233" x1="920.395" y1="645.98" x2="1754.8" y2="645.98" gradientUnits="userSpaceOnUse">
<stop stopColor="#FFCB8F"/>
<stop offset="1" stopColor="#FFEF76"/>
</linearGradient>
<linearGradient id="paint1_linear_854_233" x1="1791.42" y1="431.568" x2="1707.69" y2="713.877" gradientUnits="userSpaceOnUse">
<stop stopColor="#268562"/>
<stop offset="0.17" stopColor="#24805D"/>
<stop offset="0.37" stopColor="#1F7250"/>
<stop offset="0.59" stopColor="#175B3C"/>
<stop offset="0.81" stopColor="#0B3B1E"/>
<stop offset="1" stopColor="#001900"/>
</linearGradient>
<linearGradient id="paint2_linear_854_233" x1="9.0116" y1="351.029" x2="831.883" y2="351.029" gradientUnits="userSpaceOnUse">
<stop stopColor="#FFEBFF"/>
<stop offset="1" stopColor="#FFE95D"/>
</linearGradient>
<linearGradient id="paint3_linear_854_233" x1="350.514" y1="385.168" x2="288.073" y2="779.541" gradientUnits="userSpaceOnUse">
<stop stopColor="#268562"/>
<stop offset="0.17" stopColor="#24805D"/>
<stop offset="0.37" stopColor="#1F7250"/>
<stop offset="0.59" stopColor="#175B3C"/>
<stop offset="0.81" stopColor="#0B3B1E"/>
<stop offset="1" stopColor="#001900"/>
</linearGradient>
<linearGradient id="paint4_linear_854_233" x1="183.877" y1="162.46" x2="489.891" y2="162.46" gradientUnits="userSpaceOnUse">
<stop stopColor="#BFB6FF"/>
<stop offset="0.2" stopColor="#C5B8F7"/>
<stop offset="0.52" stopColor="#D8C0E1"/>
<stop offset="0.9" stopColor="#F6CCBE"/>
<stop offset="1" stopColor="#FFD0B4"/>
</linearGradient>
<linearGradient id="paint5_linear_854_233" x1="402.762" y1="322.524" x2="516.51" y2="322.524" gradientUnits="userSpaceOnUse">
<stop stopColor="#FFC662"/>
<stop offset="1" stopColor="#FF9E99"/>
</linearGradient>
<linearGradient id="paint6_linear_854_233" x1="1277.89" y1="516.038" x2="1545.49" y2="516.038" gradientUnits="userSpaceOnUse">
<stop stopColor="#FFC662"/>
<stop offset="1" stopColor="#FF9E99"/>
</linearGradient>
<linearGradient id="paint7_linear_854_233" x1="1279" y1="517.042" x2="1563.84" y2="517.042" gradientUnits="userSpaceOnUse">
<stop stopColor="#FFC662"/>
<stop offset="1" stopColor="#FF9E99"/>
</linearGradient>
<linearGradient id="paint8_linear_854_233" x1="1279" y1="517.042" x2="1563.84" y2="517.042" gradientUnits="userSpaceOnUse">
<stop stopColor="#FFC662"/>
<stop offset="1" stopColor="#FF9E99"/>
</linearGradient>
</defs>
</svg>
