<svg width="842" height="800" viewBox="0 0 842 800" fill="none" xmlns="http://www.w3.org/2000/svg">
<path d="M239.58 4.13385C290.203 15.7383 319.917 50.3517 324.019 104.173C326.62 138.786 309.712 178.901 336.325 206.312C358.835 229.521 388.149 223.219 417.762 217.016C442.474 211.814 467.385 206.612 488.695 218.517C555.526 255.831 497.399 309.152 517.709 369.575C530.415 407.29 556.227 422.496 595.245 415.293C641.666 406.69 686.487 380.98 734.81 388.082C783.232 395.185 829.654 420.995 840.258 473.415C846.661 504.827 835.256 542.842 808.544 561.849C779.13 582.858 746.115 580.257 712.099 576.955C673.581 573.154 643.767 604.466 619.656 629.876C570.133 682.096 490.296 700.103 420.264 701.804C282.8 705.205 115.422 664.989 43.3886 535.739C33.9843 518.933 26.5809 501.126 21.0783 482.719C-3.83326 400.187 -3.53312 299.448 5.97129 214.415C13.3747 148.79 37.9862 80.2633 91.511 38.247C130.529 7.73524 182.653 -5.97006 231.576 2.43319C234.177 2.93339 236.878 3.53362 239.58 4.13385Z" fill="url(#paint0_linear_855_271)"/>
<path d="M116.318 359.401C111.916 411.5 165.333 429.3 170.835 480.799C176.937 537.099 109.616 541.998 88.2086 619.597C62.8004 711.596 156.931 816.595 249.761 797.795C333.988 780.795 275.769 646.397 331.587 634.297C358.396 628.497 392.507 679.896 410.913 693.396C447.724 720.296 485.437 719.496 517.747 685.396C551.558 649.697 570.064 585.098 535.553 543.898C506.143 508.799 454.927 507.999 413.213 503.099C403.81 501.999 327.086 502.999 348.893 469.1C357.095 456.3 369.799 432.7 357.996 417.8C349.193 406.8 335.188 407.6 320.884 408.5C308.38 409.2 295.876 409.9 286.473 402.8C267.666 388.401 271.168 355.701 256.163 337.001C240.858 318.002 211.748 307.002 183.939 307.002C150.729 306.802 119.419 322.602 116.318 359.401Z" fill="url(#paint1_linear_855_271)"/>
<path d="M208.624 84.2424C206.327 130.39 191.551 169.446 163.297 206.604C126.656 254.65 186.659 306.591 236.079 288.212C289.992 268.234 338.214 234.772 393.924 219.389C409.598 215.094 425.872 211.199 441.846 207.803C451.531 205.805 461.115 203.208 468.503 196.216C475.791 189.423 480.683 180.334 483.08 170.745C488.171 150.867 483.08 128.293 468.503 113.509C459.118 104.02 446.539 98.6261 433.36 97.0279C408.9 94.0313 382.143 93.5319 358.281 87.3389C336.616 81.6454 324.436 67.4614 309.86 51.4795C298.279 38.7938 282.504 33.0004 266.829 33.0004C238.276 32.9005 210.121 52.2786 208.624 84.2424Z" fill="url(#paint2_linear_855_271)"/>
<path d="M598 675C603.605 650.741 622.024 633.47 646.748 626.682C705.505 610.709 749.448 715.731 802 638.262" stroke="#D8BCF9" stroke-width="28.3465" stroke-miterlimit="10"/>
<path d="M396 322.5C396 353.755 421.345 379 452.5 379C483.655 379 509 353.655 509 322.5C509 291.345 483.655 266 452.5 266C421.345 266 396 291.345 396 322.5Z" fill="url(#paint3_linear_855_271)"/>
<path d="M450.79 425.925C449.289 420.635 446.989 415.145 443.788 409.455C416.582 361.441 353.667 377.212 314.058 398.874C290.553 411.651 266.948 429.319 252.545 452.378C242.942 467.751 242.942 467.751 252.545 452.378C240.542 471.644 239.041 493.704 246.743 514.966C266.248 568.371 319.76 555.793 360.369 535.829C400.078 516.264 465.893 479.829 450.79 425.925Z" fill="#D094D2"/>
<defs>
<linearGradient id="paint0_linear_855_271" x1="9.0116" y1="351.029" x2="831.883" y2="351.029" gradientUnits="userSpaceOnUse">
<stop stop-color="#FFEBFF"/>
<stop offset="1" stop-color="#FFE95D"/>
</linearGradient>
<linearGradient id="paint1_linear_855_271" x1="350.514" y1="385.168" x2="288.073" y2="779.541" gradientUnits="userSpaceOnUse">
<stop stop-color="#268562"/>
<stop offset="0.17" stop-color="#24805D"/>
<stop offset="0.37" stop-color="#1F7250"/>
<stop offset="0.59" stop-color="#175B3C"/>
<stop offset="0.81" stop-color="#0B3B1E"/>
<stop offset="1" stop-color="#001900"/>
</linearGradient>
<linearGradient id="paint2_linear_855_271" x1="183.877" y1="162.46" x2="489.891" y2="162.46" gradientUnits="userSpaceOnUse">
<stop stop-color="#BFB6FF"/>
<stop offset="0.2" stop-color="#C5B8F7"/>
<stop offset="0.52" stop-color="#D8C0E1"/>
<stop offset="0.9" stop-color="#F6CCBE"/>
<stop offset="1" stop-color="#FFD0B4"/>
</linearGradient>
<linearGradient id="paint3_linear_855_271" x1="402.762" y1="322.524" x2="516.51" y2="322.524" gradientUnits="userSpaceOnUse">
<stop stop-color="#FFC662"/>
<stop offset="1" stop-color="#FF9E99"/>
</linearGradient>
</defs>
</svg>
