<svg width="238" height="107" viewBox="0 0 238 107" fill="none" xmlns="http://www.w3.org/2000/svg">
<path d="M0.730469 0.161133H29.8468V5.01432H6.39076V20.7478H27.1043V25.5396H6.39076V44.0151H0.730469V0.161133Z" fill="#005030"/>
<path d="M36.5664 0.161133H42.2267V26.5296C42.2267 35.2986 45.0218 39.7751 54.1694 39.7751C63.317 39.7751 66.2348 35.2986 66.2348 26.5296V0.161133H71.8951V27.7122C71.8951 38.6625 66.2348 44.6896 54.1694 44.6896C42.104 44.6896 36.5664 38.6538 36.5664 27.7122V0.161133Z" fill="#005030"/>
<path d="M113.832 0.161133V5.01432H98.7788V44.0151H93.1185V5.01432H78.0039V0.161133H113.841H113.832Z" fill="#005030"/>
<path d="M118.684 0.161133H124.344V26.5296C124.344 35.2986 127.148 39.7751 136.287 39.7751C145.425 39.7751 148.352 35.2986 148.352 26.5296V0.161133H154.012V27.7122C154.012 38.6625 148.352 44.6896 136.287 44.6896C124.221 44.6896 118.684 38.6538 118.684 27.7122V0.161133Z" fill="#005030"/>
<path d="M162.419 0.161133H178.655C188.915 0.161133 195.759 2.46509 195.759 12.1627C195.759 18.7592 192.771 22.0531 188.109 23.2357H191.343C194.83 23.2357 195.82 25.2856 195.82 27.8348V44.0063H190.221V26.6522H168.07V44.0063H162.41V0.161133H162.419ZM178.655 21.8078C185.744 21.8078 190.16 21.0018 190.16 13.4154C190.16 5.82903 185.744 5.02308 178.655 5.02308H168.079V21.8165H178.655V21.8078Z" fill="#005030"/>
<path d="M205.781 0.161133H236.264V5.01432H211.442V19.6965H233.154V24.4271H211.442V39.1706H236.264V44.0238H205.781V0.161133Z" fill="#005030"/>
<path d="M0.730469 61.4824H29.8468V66.3356H6.39076V82.0691H27.1043V86.8609H6.39076V105.336H0.730469V61.4912V61.4824Z" fill="#005030"/>
<path d="M56.2292 60.7998C69.2321 60.7998 76.8813 70.5675 76.8813 83.375C76.8813 96.1825 69.2321 106.012 56.2292 106.012C43.2262 106.012 35.5156 96.2439 35.5156 83.375C35.5156 70.5062 43.2262 60.7998 56.2292 60.7998ZM56.2292 101.106C66.3055 101.106 71.2211 93.7034 71.2211 83.3838C71.2211 73.0642 66.3055 65.7231 56.2292 65.7231C46.1528 65.7231 41.2373 73.1255 41.2373 83.3838C41.2373 93.6421 46.1528 101.106 56.2292 101.106Z" fill="#005030"/>
<path d="M102.819 60.7998C115.822 60.7998 123.471 70.5675 123.471 83.375C123.471 96.1825 115.822 106.012 102.819 106.012C89.8161 106.012 82.1055 96.2439 82.1055 83.375C82.1055 70.5062 89.8161 60.7998 102.819 60.7998ZM102.819 101.106C112.895 101.106 117.811 93.7034 117.811 83.3838C117.811 73.0642 112.895 65.7231 102.819 65.7231C92.7426 65.7231 87.8271 73.1255 87.8271 83.3838C87.8271 93.6421 92.7426 101.106 102.819 101.106Z" fill="#005030"/>
<path d="M131.559 61.4824H145.683C156.504 61.4824 167.895 64.531 167.895 83.3743C167.895 102.218 156.513 105.328 145.683 105.328H131.559V61.4824ZM145.683 100.483C153.464 100.483 162.235 99.2392 162.235 83.3831C162.235 67.527 153.402 66.3444 145.683 66.3444H137.219V100.492H145.683V100.483Z" fill="#005030"/>
<path d="M193.275 106.02C179.966 106.02 172.93 99.8618 172.93 88.8502H178.651C178.651 97.2425 183.69 101.228 193.398 101.228C200.986 101.228 204.35 98.8018 204.35 93.9486C204.35 90.5234 202.107 87.9128 197.008 86.6075L184.75 83.4363C177.845 81.6317 174.98 77.6545 174.98 72.4247C174.98 64.8383 180.456 60.791 190.533 60.791C202.475 60.791 208.758 66.5115 208.758 75.9638H202.975C202.975 68.9994 198.804 65.5128 190.533 65.5128C184.128 65.5128 180.702 67.6853 180.702 72.1706C180.702 75.2805 182.568 77.6458 187.361 78.8897L199.488 81.9383C206.576 83.7429 210.063 87.8515 210.063 93.6333C210.063 101.474 204.964 106.012 193.266 106.012L193.275 106.02Z" fill="#005030"/>
<path d="M226.32 65.8462C226.548 65.3293 226.758 64.9088 226.916 64.4796C227.17 63.7788 227.406 63.0692 227.362 62.3246C227.362 62.1581 227.336 61.9917 227.292 61.8252C227.248 61.6413 227.196 61.4661 227.091 61.3084C226.916 61.0543 226.618 60.9404 226.32 60.9404C226.013 60.9404 225.724 61.0543 225.549 61.3084C225.443 61.4573 225.382 61.6413 225.347 61.8252C225.312 61.9917 225.286 62.1581 225.277 62.3246C225.242 63.0779 225.47 63.7875 225.724 64.4796C225.882 64.9176 226.092 65.3293 226.32 65.8462Z" fill="#005030"/>
<path d="M226.31 78.3994C226.082 78.9163 225.872 79.3368 225.714 79.766C225.46 80.4668 225.223 81.1764 225.267 81.921C225.267 82.0875 225.293 82.2539 225.337 82.4204C225.381 82.6043 225.433 82.7796 225.539 82.9372C225.714 83.1913 226.012 83.3052 226.31 83.3052C226.616 83.3052 226.905 83.1913 227.081 82.9372C227.186 82.7883 227.247 82.6043 227.282 82.4204C227.317 82.2539 227.344 82.0875 227.352 81.921C227.387 81.1677 227.16 80.4581 226.905 79.766C226.748 79.328 226.537 78.9163 226.31 78.3994Z" fill="#005030"/>
<path d="M226.307 77.4707C229.263 77.4707 231.66 75.0743 231.66 72.1182C231.66 69.162 229.263 66.7656 226.307 66.7656C223.35 66.7656 220.953 69.162 220.953 72.1182C220.953 75.0743 223.35 77.4707 226.307 77.4707Z" fill="#005030"/>
<path d="M223.175 66.6878C223.113 66.1271 223.087 65.6628 222.999 65.2073C222.868 64.4802 222.719 63.7443 222.307 63.1136C222.219 62.9734 222.114 62.842 222 62.7106C221.878 62.5704 221.738 62.4478 221.571 62.3689C221.291 62.2375 220.984 62.2901 220.721 62.439C220.458 62.588 220.257 62.8332 220.23 63.1398C220.213 63.3238 220.257 63.5078 220.309 63.683C220.362 63.8407 220.423 63.9984 220.502 64.1473C220.844 64.8131 221.405 65.3124 221.974 65.7942C222.325 66.0921 222.719 66.3461 223.175 66.6878Z" fill="#005030"/>
<path d="M229.449 77.5596C229.511 78.1202 229.537 78.5845 229.624 79.0401C229.756 79.7672 229.905 80.503 230.317 81.1338C230.404 81.2739 230.509 81.4053 230.623 81.5367C230.746 81.6769 230.886 81.7995 231.053 81.8784C231.333 82.0098 231.64 81.9572 231.903 81.8083C232.165 81.6594 232.367 81.4141 232.393 81.1075C232.411 80.9235 232.367 80.7395 232.314 80.5643C232.262 80.4067 232.201 80.249 232.122 80.1001C231.78 79.4343 231.219 78.9349 230.65 78.4531C230.299 78.1553 229.905 77.9012 229.449 77.5596Z" fill="#005030"/>
<path d="M220.875 68.9806C220.542 68.525 220.288 68.1396 219.981 67.7804C219.5 67.211 219.009 66.6591 218.334 66.3087C218.185 66.2299 218.028 66.1685 217.87 66.116C217.695 66.0634 217.511 66.0196 217.327 66.0371C217.02 66.0634 216.775 66.2649 216.626 66.5277C216.477 66.7905 216.424 67.0971 216.555 67.3775C216.634 67.5439 216.766 67.6841 216.897 67.8067C217.02 67.9206 217.16 68.0257 217.3 68.1133C217.931 68.525 218.667 68.674 219.394 68.8054C219.85 68.8842 220.314 68.9105 220.875 68.9806Z" fill="#005030"/>
<path d="M231.75 75.2617C232.083 75.7173 232.337 76.1027 232.644 76.4619C233.126 77.0313 233.616 77.5832 234.291 77.9336C234.44 78.0124 234.598 78.0738 234.755 78.1263C234.931 78.1789 235.115 78.2227 235.299 78.2052C235.605 78.1789 235.851 77.9774 236 77.7146C236.149 77.4518 236.201 77.1452 236.07 76.8648C235.991 76.6984 235.859 76.5582 235.728 76.4356C235.605 76.3217 235.465 76.2166 235.325 76.129C234.694 75.7173 233.958 75.5683 233.231 75.4369C232.775 75.3581 232.311 75.3318 231.75 75.2617Z" fill="#005030"/>
<path d="M231.75 68.9806C232.083 68.525 232.337 68.1396 232.644 67.7804C233.126 67.211 233.616 66.6591 234.291 66.3087C234.44 66.2299 234.598 66.1685 234.755 66.116C234.931 66.0634 235.115 66.0196 235.299 66.0371C235.605 66.0634 235.851 66.2649 236 66.5277C236.149 66.7905 236.201 67.0971 236.07 67.3775C235.991 67.5439 235.859 67.6841 235.728 67.8067C235.605 67.9206 235.465 68.0257 235.325 68.1133C234.694 68.525 233.958 68.674 233.231 68.8054C232.775 68.8842 232.311 68.9105 231.75 68.9806Z" fill="#005030"/>
<path d="M220.875 75.2617C220.542 75.7173 220.288 76.1027 219.981 76.4619C219.5 77.0313 219.009 77.5832 218.334 77.9336C218.185 78.0124 218.028 78.0738 217.87 78.1263C217.695 78.1789 217.511 78.2227 217.327 78.2052C217.02 78.1789 216.775 77.9774 216.626 77.7146C216.477 77.4518 216.424 77.1452 216.555 76.8648C216.634 76.6984 216.766 76.5582 216.897 76.4356C217.02 76.3217 217.16 76.2166 217.3 76.129C217.931 75.7173 218.667 75.5683 219.394 75.4369C219.85 75.3581 220.314 75.3318 220.875 75.2617Z" fill="#005030"/>
<path d="M220.032 72.1181C219.515 71.8903 219.094 71.68 218.665 71.5224C217.964 71.2683 217.254 71.0318 216.509 71.0756C216.343 71.0756 216.176 71.1019 216.01 71.1457C215.826 71.1895 215.651 71.242 215.493 71.3472C215.239 71.5224 215.125 71.8202 215.125 72.1181C215.125 72.4247 215.239 72.7138 215.493 72.889C215.642 72.9941 215.826 73.0554 216.01 73.0904C216.176 73.1255 216.343 73.1518 216.509 73.1605C217.263 73.1956 217.973 72.9678 218.665 72.7138C219.103 72.5561 219.515 72.3458 220.032 72.1181Z" fill="#005030"/>
<path d="M232.59 72.1271C233.107 72.3549 233.527 72.5651 233.957 72.7228C234.658 72.9769 235.367 73.2134 236.112 73.1696C236.279 73.1696 236.445 73.1433 236.612 73.0995C236.796 73.0557 236.971 73.0031 237.129 72.898C237.383 72.7228 237.497 72.425 237.497 72.1271C237.497 71.8205 237.383 71.5314 237.129 71.3562C236.98 71.2511 236.796 71.1898 236.612 71.1547C236.445 71.1197 236.279 71.0934 236.112 71.0846C235.359 71.0496 234.649 71.2774 233.957 71.5314C233.519 71.6891 233.107 71.8993 232.59 72.1271Z" fill="#005030"/>
<path d="M229.449 66.6878C229.511 66.1271 229.537 65.6628 229.624 65.2073C229.756 64.4802 229.905 63.7443 230.317 63.1136C230.404 62.9734 230.509 62.842 230.623 62.7106C230.746 62.5704 230.886 62.4478 231.053 62.3689C231.333 62.2375 231.64 62.2901 231.903 62.439C232.165 62.588 232.367 62.8332 232.393 63.1398C232.411 63.3238 232.367 63.5078 232.314 63.683C232.262 63.8407 232.201 63.9984 232.122 64.1473C231.78 64.8131 231.219 65.3124 230.65 65.7942C230.299 66.0921 229.905 66.3461 229.449 66.6878Z" fill="#005030"/>
<path d="M223.175 77.5596C223.113 78.1202 223.087 78.5845 222.999 79.0401C222.868 79.7672 222.719 80.503 222.307 81.1338C222.219 81.2739 222.114 81.4053 222 81.5367C221.878 81.6769 221.738 81.7995 221.571 81.8784C221.291 82.0098 220.984 81.9572 220.721 81.8083C220.458 81.6594 220.257 81.4141 220.23 81.1075C220.213 80.9235 220.257 80.7395 220.309 80.5643C220.362 80.4067 220.423 80.249 220.502 80.1001C220.844 79.4343 221.405 78.9349 221.974 78.4531C222.325 78.1553 222.719 77.9012 223.175 77.5596Z" fill="#005030"/>
</svg>
